<svg width="24" height="24" viewBox="0 0 24 24" fill="none" xmlns="http://www.w3.org/2000/svg">
<g clip-path="url(#clip0_48345_19)">
<path d="M11.5858 5.26576C13.418 5.26576 15.1445 6.078 16.4098 7.34775V7.3515C16.4098 6.74175 16.82 6.2805 17.387 6.2805H17.531C18.4258 6.2805 18.605 7.12425 18.605 7.3905L18.6088 16.8668C18.5465 17.4878 19.25 17.8088 19.6408 17.4098C21.1595 15.8475 22.9798 9.37051 18.695 5.62051C14.699 2.12026 9.33579 2.69851 6.48429 4.66351C3.45354 6.75751 1.51629 11.3828 3.39804 15.7298C5.45304 20.469 11.3278 21.8828 14.8243 20.4728C16.5943 19.758 17.4103 22.1475 15.5705 22.9298C12.7978 24.1125 5.07054 23.9918 1.46154 17.742C-0.976709 13.5203 -0.847709 6.09375 5.62179 2.24625C10.5665 -0.698995 17.0908 0.117005 21.0238 4.22326C25.1338 8.52001 24.896 16.5593 20.8835 19.6845C19.0663 21.1058 16.3678 19.7235 16.3873 17.6528L16.367 16.9778C15.1018 18.231 13.418 18.966 11.5858 18.966C7.96104 18.966 4.76979 15.774 4.76979 12.153C4.76979 8.49301 7.96104 5.26725 11.5858 5.26725V5.26576ZM16.145 11.8913C16.0078 9.2385 14.039 7.641 11.66 7.641H11.57C8.82804 7.641 7.30479 9.801 7.30479 12.2498C7.30479 14.9955 9.14454 16.7295 11.5588 16.7295C14.2535 16.7295 16.0228 14.7578 16.1518 12.4253L16.145 11.8913Z" fill="#0047D1"/>
</g>
<defs>
<clipPath id="clip0_48345_19">
<rect width="24" height="24" fill="white"/>
</clipPath>
</defs>
</svg>
